<?xml version="1.0" encoding="UTF-8"?>
<svg xmlns="http://www.w3.org/2000/svg" version="1.1" viewBox="0 0 209.63 433.47">
  <!-- Generator: Adobe Illustrator 29.5.1, SVG Export Plug-In . SVG Version: 2.1.0 Build 141)  -->
  <defs>
    <style>
      .st0 {
        fill: #ccc;
        stroke: #cb7287;
        stroke-miterlimit: 10;
        stroke-width: 4px;
      }

      .st1 {
        fill: #b3b3b3;
      }
    </style>
  </defs>
  <g id="Layer_2">
    <path class="st0" d="M207.63,430.67c-.11.54-2.9.41-3.57.38-2.84-.1-13.21,0-33.96.38-.36-3.5-1.2-8.47-3.36-14.04-8.33-21.51-28.08-30.82-32.94-33.02-11.06-5.02-21.43-6.02-28.69-5.96h0c-.09,0-.2,0-.29,0-.1,0-.2,0-.29,0h0c-7.26-.06-17.63.94-28.69,5.96-4.86,2.2-24.6,11.52-32.94,33.02-2.16,5.58-3,10.55-3.36,14.04-20.75-.38-31.11-.49-33.96-.38-.68.02-3.47.15-3.57-.38-.03-.17.21-.34.26-.38,2.73-2.12,40.4-58.44,42.57-67.21.77-3.11.19-5.3.19-5.3-.44-1.65-1.01-1.73-1.15-3.13-.16-1.62.47-3.07,1.47-5.36.77-1.77,1.19-2.23.96-3-.38-1.29-2.06-1.71-1.91-2.36.04-.18.23-.41,1.21-.64,1.9-.45,2.97-.01,4.66-.06.48-.02,1.94-.06,3.26-.7,1.97-.96,2.87-2.9,3.26-3.77,6.83-15.22,9.7-24.34,9.7-24.34,2.41-7.65,9.46-27.08,10.47-34.26.13-.93.3-2.61-.51-4.34-.89-1.91-2.58-3.04-3.96-3.7,0,0-.76-1.25-.64-2.17.14-1.02,1.37-1.64,1.91-1.91,1.67-.84,2.53-.26,3.96-.89.69-.31,1.61-.95,2.43-2.43,0,0,4.86-28.86,8.55-59.87,1.12-9.37,2.3-19.43,3.32-33.06,1.36-18.26.44-16.31,1.66-33.45,1.3-18.25.14-36.78,3.45-54.77.2-1.09.88-4.36-.26-8.17-.4-1.33-.81-2.05-1.53-3.57-1.69-3.6-3.25-6.48-3.45-9.19-.39-5.38,1.8-11.45,6-14.68,1.64-1.26,2.56-1.3,3.7-2.81,2.42-3.21,1.64-7.54,1.4-9.06-.68-4.48-.71-11.97,1.96-25.4,2.45,13.38,2.4,20.88,1.71,25.4-.23,1.55-1.02,5.86,1.4,9.06,1.14,1.51,2.06,1.55,3.7,2.81,4.2,3.23,6.39,9.3,6,14.68-.19,2.71-1.76,5.6-3.45,9.19-.72,1.53-1.13,2.24-1.53,3.57-1.14,3.81-.46,7.08-.26,8.17,3.31,17.99,2.15,36.52,3.45,54.77,1.22,17.14.3,15.19,1.66,33.45,1.02,13.64,2.2,23.69,3.32,33.06,3.69,31.01,8.55,59.87,8.55,59.87.81,1.48,1.73,2.12,2.43,2.43,1.43.64,2.29.05,3.96.89.54.27,1.78.89,1.91,1.91.12.92-.64,2.17-.64,2.17-1.37.66-3.07,1.79-3.96,3.7-.81,1.73-.64,3.41-.51,4.34,1.01,7.17,8.06,26.61,10.47,34.26,0,0,2.88,9.12,9.7,24.34.39.86,1.29,2.81,3.26,3.77,1.31.64,2.78.69,3.26.7,1.69.05,2.76-.38,4.66.06.98.23,1.17.46,1.21.64.15.65-1.53,1.08-1.91,2.36-.23.77.19,1.23.96,3,1,2.29,1.62,3.74,1.47,5.36-.13,1.4-.71,1.47-1.15,3.13,0,0-.58,2.19.19,5.3,2.18,8.78,39.85,65.09,42.57,67.21.05.04.29.22.26.38ZM93.36,291.35c-3.36,16.68-6.72,33.36-10.09,50.04h41.11l-8.17-50.04h-22.85Z"/>
  </g>
  <g id="Layer_3">
    <path class="st1" d="M73.87,270.29c.04-.15.2-.2.69-.41.4-.17.44-.19.52-.22,1.55-.57,4.77-.21,4.77-.21.61.07,1.75.13,4.05.24,2.08.1,3.56.08,4.88.06,5.01-.06,3.38.09,15.29-.03,8.3-.08,16.94-.23,21.7-.29,3.72-.05,3.2-.02,3.87-.04.15,0,.95-.01,2.54-.02.71,0,1.39,0,2.24.22.44.12,1.36.36,1.38.77.02.25-.33.42-.74.74-.41.32-.77.8-1.45,1.76-1.09,1.53-1.26,2.23-1.98,3.08-1.34,1.59-2.82,1.64-3.77,1.65-3.05.04-21.36-.02-23.49,0-7.36.07-14.72-.03-22.09.07-.41,0-1.79.03-3.15-.73-.8-.44-1.29-.98-1.38-1.1-.47-.61-.52-1-1.21-2.2,0,0-.71-1.29-1.53-2.21-.21-.23-.31-.35-.47-.44-.26-.15-.46-.16-.6-.38-.04-.06-.12-.19-.09-.32Z"/>
    <path class="st1" d="M46.66,351.92c34.6-.1,115.48-.34,115.81-.27.22.05.43.14.43.14.11.04.16.07.21.1.14.09.21.23.4.82.07.21.1.31.12.39.09.34.13.63.14.85.05.42-.02.73-.09.93-.03.09-.09.21-.21.44-.15.3-.23.43-.38.74-.07.14-.12.26-.15.33-.11.31-.18.58-.24.79-.05.18-.11.43-.17.75-.03.21-.06.38-.07.52-.02.29-.04.58-.06.88-38.39.17-76.79.33-115.18.5,0-.08,0-.92-.08-1.52-.03-.23-.07-.46-.07-.46-.03-.17-.06-.33-.09-.46-.19-.54-.39-1.08-.58-1.62-.13-.25-.26-.5-.4-.75-.04-.11-.08-.23-.11-.38-.03-.15-.05-.29-.06-.41,0-.17.02-.31.03-.43,0-.07.02-.19.06-.35.05-.23.11-.42.2-.71.08-.22.17-.5.3-.83"/>
    <path class="st1" d="M106.17,62.63c3.91.27,6.36.31,7.85.19.25-.02,1.41-.08,1.6.38.04.1,0,.29-.1.68-.11.46-.23.82-.3,1-.12.35-.23.62-.34.89-.24.58-.36.88-.6,1.41-.55,1.24-1.06,2.3-1.52,3.24-.46.94-.69,1.41-.71,1.46-.37.75-.55,1.08-.77,1.64-.16.41-.32.9-.33.93-.06.18-.12.37-.19.62-.13.47-.17.74-.2.83-.18.66-2.26,1.47-4.09.83-2.24-.79-1.92-3.02-4.02-3.7-1.71-.56-2.65.71-3.98-.13-.44-.28-.88-1.11-1.75-2.76-.65-1.24-1.22-2.57-1.28-2.7-.23-.54-.29-.72-.54-1.28-.23-.51-.38-.79-.55-1.28-.11-.3-.02-.07-.26-.97-.06-.22-.07-.28-.05-.35.1-.31.7-.35,1.19-.44.46-.08,1.1-.25,1.85-.64"/>
  </g>
</svg>