<?xml version="1.0" encoding="UTF-8"?>
<svg id="Layer_2" xmlns="http://www.w3.org/2000/svg" version="1.1" viewBox="0 0 117.12 410.26">
  <!-- Generator: Adobe Illustrator 29.5.1, SVG Export Plug-In . SVG Version: 2.1.0 Build 141)  -->
  <defs>
    <style>
      .st0 {
        fill: #fdf1f2;
      }

      .st0, .st1 {
        stroke: #7a7a99;
        stroke-miterlimit: 10;
        stroke-width: 3.5px;
      }

      .st1 {
        fill: #b3b3b3;
      }

      .st2 {
        fill: #7a7a99;
      }
    </style>
  </defs>
  <path class="st0" d="M34.34,20.51c-.47.95,1.62,2.08,3.08,6.21.25.71.96,2.76,1.03,5.17,0,0,.24,8.34-8.36,15.24-.66.53-1.36.98-1.36.98-.48.28-.54.3-.54.33-.02.84,58.72,4.54,59.49-1.03.16-1.19-2.5-1.35-5.13-5.17-3.3-4.8-4.51-12.4-1.03-17.59,1.19-1.77,3.3-2.26,3.08-3.1-.18-.68-1.63-1.03-5.13-1.03-7.37,0-11.22,1.54-17.44,2.07-3.18.27-5.48.15-8.21,0-11.65-.62-18.65-3.78-19.49-2.07Z"/>
  <rect class="st0" x="6.19" y="372.51" width="103" height="36" rx="3.66" ry="3.66"/>
  <rect class="st0" x="30.19" y="54.51" width="58" height="270"/>
  <path class="st0" d="M87.12,54.51c-7.49,0-14.98,0-22.47,0-11.13,0-22.26,0-33.39,0-.2,0-1.29-.02-2.17-.9-.56-.56-.9-1.32-.9-2.17v-.85c0-1.7,1.38-3.07,3.07-3.07h55.85c1.7,0,3.07,1.38,3.07,3.07v.85c0,1.7-1.38,3.07-3.07,3.07Z"/>
  <path class="st0" d="M90.19,330.51H28.19c-1.1,0-2-1.34-2-3s.9-3,2-3h62c1.1,0,2,1.35,2,3s-.9,3-2,3Z"/>
  <rect class="st0" x="21.19" y="330.51" width="75" height="9" rx="4.5" ry="4.5"/>
  <path class="st0" d="M89.19,347.51H28.19c2.1-2.51,2.07-5.18,0-8h61c-1.93,2.85-2.24,5.54,0,8Z"/>
  <path class="st0" d="M56.19,359.51c30.85.39,42.6.08,42.63-.63,0-.08-.11-.4-.09-.89.02-.35.16-.8.67-1.37,1.98-2.21,8.07-6.89,0-6.71-2.28.27-.55-1.91-.97-2.33-.07-.07-.16-.06-.21-.07-.74-.05-26.45-.02-38.04,0"/>
  <path class="st0" d="M56.19,359.51c-21.75-.28-33.6-.29-35,0-.12.02-1.22.27-1.47-.15-.14-.23.11-.49.09-.95-.02-.36-.18-.83-.72-1.42-2.1-2.3-8.58-7.17,0-6.99,2.44.28.55-2.03,1.04-2.43.05-.04.12-.06.21-.06.81-.02,32.88,0,41.85,0"/>
  <path class="st0" d="M96.19,359.51s-77,0-75,0,3,13,0,13h75c-1.79-4.43-1.98-8.78,0-13Z"/>
  <path class="st0" d="M39.19,55.01s0,12.51,0,15.94c.02,84.36.35,168.71,1,253.06"/>
  <path class="st0" d="M51.19,323.01V55.01"/>
  <path class="st0" d="M66.19,54.51c.33,90,.67,180,1,270"/>
  <path class="st0" d="M79.19,54.51c.67,90,1.33,180,2,270"/>
  <path class="st1" d="M38.19,31.51c5.72,1.01,12.45,1.81,20,2,7.52.19,14.25-.28,20-1"/>
  <path class="st0" d="M12.19,13.51c-1.7.97-6.6,4.22-9,10-.24.57-3.68,9.23,1,17,5.12,8.51,17.7,12.22,26,7,6.4-4.03,8.58-12.32,8-16-.1-.61-.44-2.22-1-4-.58-1.87-.96-3.18-1.98-4.59-.72-.99-1.08-1.15-1.02-1.41.32-1.44,11.28.89,23,1,14.46.14,25.34-3.14,26-1,.18.59-.68.7-2,3-2.69,4.67-2.19,9.49-2.08,10.44,0,.07.04.33.08.56.88,6,6.54,11.41,13,13,7.51,1.86,14.86-1.75,19-7,4.75-6.02,5.51-14.45,2-21-4.04-7.54-12.53-10.51-15-10-.18.04-.56.14-1,0-1.77-.56-1.23-3.9-3-6-1.22-1.45-3.08-1.77-5-2-15.18-1.82-49.14.23-56,0-2.6-.09-4.07.28-7,1-2.48.61-3.42,1.14-4,2-1.02,1.51,0,2.65-1,4-.87,1.19-2.12.92-5,2,0,0-1.39.52-4,2Z"/>
  <path class="st2" d="M24.43,36.43c-3.53,5.13-10.86,2.16-11.76-3.42-.57-3.55,1.9-6.69,5-8.02,4.66-1.86,10.13.75,12.19,5.23,2.74,5.98-1.79,13.89-8.38,14.35-4.74.34-9.12-1.82-12.09-5.33-3-3.59-3.29-8.81-1.71-13.06,1.86-5.62,6.85-10.47,12.83-11.18,2.83-.36,5.39-.52,8.17-.72,18.35-1.34,38-.25,56.38-.31.97-.02,1.93-.08,2.87-.16,3.11-.37,6.35-.29,9.42.12,11.06.49,17.67,14.75,11.7,23.84-3.44,5.12-10.3,7.66-16.15,5.41-5.03-1.94-8.95-7.12-8.37-12.64.44-3.94,3.08-7.77,7.02-8.86,4.72-1.43,10.06,1.14,11.83,5.83,1.72,4.29-2.02,10.11-6.9,8.44-.87-.28-1.57-.66-2.3-1.25l1.99-2.36c2.81,2.27,5.22-.96,4.24-3.75-1.13-2.98-4.85-4.83-7.95-3.81-4.38,1.34-5.95,7.12-3.54,10.89,3.8,6.67,13.14,6.48,17.34.25,3.83-5.9.67-15.27-5.8-17.86-2.15-.78-5.01-.92-7.36-1.05-1.94-.08-3.92.13-5.85.3-3.42.22-6.83.14-10.21.11-15.54-.24-32.74-.74-48.13.29-4.82.46-10.47.02-14.16,3.58-5.09,4.66-7.05,14.09-.15,18.14,3.74,2.56,9.41,2.79,11.71-1.64,1.13-1.94,1.44-4.34.55-6.22-1.2-2.8-5.01-4.8-7.96-3.61-1.73.7-3.45,2.62-3.11,4.55.2,1.74,2.2,3.64,3.95,3.48.78-.03,1.59-.57,2.21-1.4l2.47,1.84h0Z"/>
</svg>